<svg aria-hidden="true" style="position: absolute; width: 0; height: 0; overflow: hidden;" version="1.1" xmlns="http://www.w3.org/2000/svg" xmlns:xlink="http://www.w3.org/1999/xlink">
<defs>
<symbol id="logo" viewBox="0 0 24 24">
<path d="M2.95793 15.0567L11.0406 1.98848L11.5205 1.4829L17.6973 5.60128L17.7396 8.08653L19.2471 10.5462L12.5874 21.1036L2.95793 15.0567Z" fill="#FCF1E0" />
  <path d="M16.2259 17.9096L5.58674 11.2615M8.52063 6.44892L19.1598 13.097M7.97242 19.3981L16.7741 4.96039M20.3822 11.0918C18.1024 9.66717 17.207 8.55383 18.6739 6.14755L11.4545 1.63635L2.65284 16.0741L13.292 22.7221L20.3822 11.0918Z" stroke="#FD9222" stroke-width="2" stroke-linecap="round" stroke-linejoin="round" />
</symbol>
<symbol id="facebook" viewBox="0 0 24 24">
<path d="M14.64 3.48017C14.82 3.48017 15 3.48017 15.36 3.48017V6.18017C15.18 6.18017 14.82 6.18017 14.46 6.18017C14.1 6.18017 13.74 6.18017 13.56 6.36017C13.38 6.54017 13.38 6.72017 13.38 7.14017C13.38 7.50017 13.38 7.74017 13.38 8.10017H15.36V10.3802H13.38V20.2802H10.32V10.3202H8.70001V8.04017H10.32V7.26017C10.32 5.94017 10.5 4.98017 10.86 4.56017C11.4 3.78017 12.48 3.42017 14.1 3.42017C14.28 3.48017 14.46 3.48017 14.64 3.48017Z" />
</symbol>
<symbol id="instagram" viewBox="0 0 24 24">
 <path d="M21.5382 8.06687C21.5264 7.26111 21.3772 6.46173 21.0914 5.70812C20.5914 4.42124 19.5732 3.40365 18.2841 2.9055C17.5389 2.62556 16.7509 2.47548 15.9534 2.45845C14.9278 2.41268 14.6026 2.3999 11.9989 2.3999C9.39529 2.3999 9.06157 2.3999 8.04335 2.45845C7.24691 2.47548 6.45899 2.62556 5.71372 2.9055C4.42469 3.40365 3.40541 4.42124 2.90644 5.70812C2.62603 6.45215 2.47463 7.23875 2.4597 8.03388C2.41385 9.05891 2.39999 9.38356 2.39999 11.9829C2.39999 14.5822 2.39999 14.9143 2.4597 15.9319C2.47569 16.7281 2.62603 17.5136 2.90644 18.2598C3.40648 19.5456 4.42469 20.5632 5.71479 21.0613C6.45686 21.3508 7.24477 21.5148 8.04442 21.5403C9.07116 21.5861 9.39635 21.5999 12 21.5999C14.6036 21.5999 14.9374 21.5999 15.9556 21.5403C16.752 21.5243 17.5399 21.3742 18.2863 21.0943C19.5753 20.5951 20.5935 19.5775 21.0936 18.2917C21.374 17.5466 21.5243 16.7611 21.5403 15.9638C21.5861 14.9398 21.6 14.6152 21.6 12.0148C21.5979 9.41549 21.5979 9.08552 21.5382 8.06687ZM11.9925 16.8984C9.26948 16.8984 7.06352 14.6961 7.06352 11.9776C7.06352 9.25902 9.26948 7.05674 11.9925 7.05674C14.7135 7.05674 16.9215 9.25902 16.9215 11.9776C16.9215 14.6961 14.7135 16.8984 11.9925 16.8984ZM17.1177 8.02217C16.4812 8.02217 15.9684 7.50912 15.9684 6.87472C15.9684 6.24033 16.4812 5.72728 17.1177 5.72728C17.7521 5.72728 18.266 6.24033 18.266 6.87472C18.266 7.50912 17.7521 8.02217 17.1177 8.02217Z" />
  <path d="M11.9941 14.9821C13.6526 14.9821 14.9971 13.6376 14.9971 11.9791C14.9971 10.3206 13.6526 8.97607 11.9941 8.97607C10.3355 8.97607 8.99106 10.3206 8.99106 11.9791C8.99106 13.6376 10.3355 14.9821 11.9941 14.9821Z" />
</symbol>
<symbol id="twitter" viewBox="0 0 24 24">
<path d="M22 5.92375C21.2563 6.25 20.4637 6.46625 19.6375 6.57125C20.4875 6.06375 21.1363 5.26625 21.4412 4.305C20.6488 4.7775 19.7738 5.11125 18.8412 5.2975C18.0887 4.49625 17.0162 4 15.8462 4C13.5763 4 11.7487 5.8425 11.7487 8.10125C11.7487 8.42625 11.7762 8.73875 11.8438 9.03625C8.435 8.87 5.41875 7.23625 3.3925 4.7475C3.03875 5.36125 2.83125 6.06375 2.83125 6.82C2.83125 8.24 3.5625 9.49875 4.6525 10.2275C3.99375 10.215 3.3475 10.0238 2.8 9.7225C2.8 9.735 2.8 9.75125 2.8 9.7675C2.8 11.76 4.22125 13.415 6.085 13.7962C5.75125 13.8875 5.3875 13.9312 5.01 13.9312C4.7475 13.9312 4.4825 13.9163 4.23375 13.8612C4.765 15.485 6.2725 16.6788 8.065 16.7175C6.67 17.8088 4.89875 18.4662 2.98125 18.4662C2.645 18.4662 2.3225 18.4513 2 18.41C3.81625 19.5813 5.96875 20.25 8.29 20.25C15.835 20.25 19.96 14 19.96 8.5825C19.96 8.40125 19.9538 8.22625 19.945 8.0525C20.7588 7.475 21.4425 6.75375 22 5.92375Z" />
</symbol>
<symbol id="arrow" width="22" height="22" viewBox="0 0 22 22">
<path d="M11.6508 12.2835C11.5656 12.3694 11.4642 12.4376 11.3525 12.4842C11.2408 12.5307 11.121 12.5547 11 12.5547C10.879 12.5547 10.7592 12.5307 10.6475 12.4842C10.5358 12.4376 10.4344 12.3694 10.3492 12.2835L6.15084 8.076C6.06562 7.99008 5.96424 7.92189 5.85253 7.87535C5.74083 7.82881 5.62102 7.80485 5.50001 7.80485C5.37899 7.80485 5.25918 7.82881 5.14748 7.87535C5.03577 7.92189 4.93439 7.99008 4.84917 8.076C4.67844 8.24775 4.58261 8.48008 4.58261 8.72225C4.58261 8.96442 4.67844 9.19675 4.84917 9.3685L9.05668 13.576C9.5723 14.091 10.2713 14.3802 11 14.3802C11.7288 14.3802 12.4277 14.091 12.9433 13.576L17.1509 9.3685C17.3202 9.19776 17.4157 8.96731 17.4167 8.72684C17.4174 8.6062 17.3943 8.4866 17.3486 8.37492C17.303 8.26324 17.2358 8.16166 17.1509 8.076C17.0656 7.99008 16.9643 7.92189 16.8525 7.87535C16.7408 7.82881 16.621 7.80485 16.5 7.80485C16.379 7.80485 16.2592 7.82881 16.1475 7.87535C16.0358 7.92189 15.9344 7.99008 15.8492 8.076L11.6508 12.2835Z" />
</symbol>
<symbol id="chocolate" viewBox="0 0 32 32">
 <path d="M13.8225 2.4135L21.3495 9.9495L21.4295 9.8695C21.5872 9.71518 21.7983 9.62768 22.0189 9.62526C22.2395 9.62284 22.4525 9.70568 22.6135 9.8565L22.6195 9.8625L23.4865 10.7295C23.7915 11.0345 23.8015 11.4995 23.5695 11.8235L23.5655 11.8305L23.4225 12.0225L29.5825 18.1825C30.1325 18.7325 30.1325 19.6125 29.5825 20.1625L20.1525 29.5925C19.6025 30.1425 18.7225 30.1425 18.1725 29.5925L13.7255 25.1455C13.6516 25.2386 13.5589 25.315 13.4534 25.3697C13.3479 25.4244 13.2321 25.4561 13.1134 25.4628C12.9948 25.4695 12.8761 25.451 12.7651 25.4086C12.6541 25.3661 12.5534 25.3007 12.4695 25.2165L9.8695 22.6165C9.71518 22.4588 9.62768 22.2477 9.62526 22.0271C9.62284 21.8065 9.70568 21.5935 9.8565 21.4325L9.8625 21.4255L9.9395 21.3495L2.4125 13.8225C1.8625 13.2725 1.8625 12.3925 2.4125 11.8425L11.8425 2.4125C12.3925 1.8625 13.2725 1.8625 13.8225 2.4125V2.4135ZM20.4045 10.8935L18.6485 9.1385C18.5933 9.08159 18.5273 9.03634 18.4543 9.00544C18.3812 8.97454 18.3028 8.95862 18.2235 8.95862C18.1442 8.95862 18.0658 8.97454 17.9928 9.00544C17.9197 9.03634 17.8537 9.08159 17.7985 9.1385L14.2185 12.7185C14.1618 12.7748 14.1168 12.8418 14.086 12.9156C14.0553 12.9894 14.0395 13.0686 14.0395 13.1485C14.0395 13.2284 14.0553 13.3076 14.086 13.3814C14.1168 13.4552 14.1618 13.5222 14.2185 13.5785L15.9675 15.3275L16.5775 14.7175L15.0125 13.1525L18.2225 9.9325L19.7915 11.5065L20.4045 10.8935ZM15.3285 15.9655L13.5745 14.2115C13.5193 14.1546 13.4533 14.1093 13.3803 14.0784C13.3072 14.0475 13.2288 14.0316 13.1495 14.0316C13.0702 14.0316 12.9918 14.0475 12.9187 14.0784C12.8457 14.1093 12.7797 14.1546 12.7245 14.2115L9.1445 17.7915L9.1395 17.7965L9.1345 17.8015C8.8945 18.0315 8.8945 18.4115 9.1345 18.6515L10.8865 20.4035L11.5025 19.7875L9.9325 18.2235L13.1525 15.0135L14.7165 16.5765L15.3285 15.9655ZM8.8225 8.1935L12.4025 11.7735C12.6425 12.0135 13.0225 12.0135 13.2525 11.7635L16.8325 8.1835C16.8894 8.12933 16.9347 8.06417 16.9656 7.99197C16.9965 7.91978 17.0125 7.84205 17.0125 7.7635H17.0225C17.0225 7.6135 16.9625 7.4535 16.8425 7.3335L13.2625 3.7535C13.2062 3.69666 13.1393 3.65153 13.0655 3.62074C12.9917 3.58994 12.9125 3.57409 12.8325 3.57409C12.7525 3.57409 12.6733 3.58994 12.5995 3.62074C12.5257 3.65153 12.4588 3.69666 12.4025 3.7535L8.8225 7.3435C8.5825 7.5735 8.5825 7.9535 8.8225 8.1935ZM3.7525 13.2635L7.3325 16.8435C7.5725 17.0835 7.9525 17.0835 8.1825 16.8435L11.7625 13.2635C11.8206 13.2082 11.8666 13.1414 11.8976 13.0674C11.9286 12.9934 11.9439 12.9137 11.9425 12.8335H11.9525C11.9525 12.6735 11.8925 12.5235 11.7725 12.4035L8.1925 8.8235C8.13731 8.76659 8.07126 8.72134 7.99825 8.69044C7.92525 8.65954 7.84678 8.64361 7.7675 8.64361C7.68822 8.64361 7.60976 8.65954 7.53675 8.69044C7.46374 8.72134 7.39769 8.76659 7.3425 8.8235L3.7525 12.4135C3.5125 12.6435 3.5125 13.0235 3.7525 13.2635ZM10.6855 22.0175L13.0475 24.3805L22.6835 11.3405L22.0285 10.6855L10.6855 22.0175Z" fill="#111111" />
  <path d="M13.8225 2.4135L21.3495 9.9495L21.4295 9.8695C21.5872 9.71518 21.7983 9.62768 22.0189 9.62526C22.2395 9.62284 22.4525 9.70568 22.6135 9.8565L22.6195 9.8625L23.4865 10.7295C23.7915 11.0345 23.8015 11.4995 23.5695 11.8235L23.5655 11.8305L23.4225 12.0225L29.5825 18.1825C30.1325 18.7325 30.1325 19.6125 29.5825 20.1625L20.1525 29.5925C19.6025 30.1425 18.7225 30.1425 18.1725 29.5925L13.7255 25.1455C13.6516 25.2386 13.5589 25.315 13.4534 25.3697C13.3479 25.4244 13.2321 25.4561 13.1134 25.4628C12.9948 25.4695 12.8761 25.451 12.7651 25.4086C12.6541 25.3661 12.5534 25.3007 12.4695 25.2165L9.8695 22.6165C9.71518 22.4588 9.62768 22.2477 9.62526 22.0271C9.62284 21.8065 9.70568 21.5935 9.8565 21.4325L9.8625 21.4255L9.9395 21.3495L2.4125 13.8225C1.8625 13.2725 1.8625 12.3925 2.4125 11.8425L11.8425 2.4125C12.3925 1.8625 13.2725 1.8625 13.8225 2.4125V2.4135ZM20.4045 10.8935L18.6485 9.1385C18.5933 9.08159 18.5273 9.03634 18.4543 9.00544C18.3812 8.97454 18.3028 8.95862 18.2235 8.95862C18.1442 8.95862 18.0658 8.97454 17.9928 9.00544C17.9197 9.03634 17.8537 9.08159 17.7985 9.1385L14.2185 12.7185C14.1618 12.7748 14.1168 12.8418 14.086 12.9156C14.0553 12.9894 14.0395 13.0686 14.0395 13.1485C14.0395 13.2284 14.0553 13.3076 14.086 13.3814C14.1168 13.4552 14.1618 13.5222 14.2185 13.5785L15.9675 15.3275L16.5775 14.7175L15.0125 13.1525L18.2225 9.9325L19.7915 11.5065L20.4045 10.8935ZM15.3285 15.9655L13.5745 14.2115C13.5193 14.1546 13.4533 14.1093 13.3803 14.0784C13.3072 14.0475 13.2288 14.0316 13.1495 14.0316C13.0702 14.0316 12.9918 14.0475 12.9187 14.0784C12.8457 14.1093 12.7797 14.1546 12.7245 14.2115L9.1445 17.7915L9.1395 17.7965L9.1345 17.8015C8.8945 18.0315 8.8945 18.4115 9.1345 18.6515L10.8865 20.4035L11.5025 19.7875L9.9325 18.2235L13.1525 15.0135L14.7165 16.5765L15.3285 15.9655ZM8.8225 8.1935L12.4025 11.7735C12.6425 12.0135 13.0225 12.0135 13.2525 11.7635L16.8325 8.1835C16.8894 8.12933 16.9347 8.06417 16.9656 7.99197C16.9965 7.91978 17.0125 7.84205 17.0125 7.7635H17.0225C17.0225 7.6135 16.9625 7.4535 16.8425 7.3335L13.2625 3.7535C13.2062 3.69666 13.1393 3.65153 13.0655 3.62074C12.9917 3.58994 12.9125 3.57409 12.8325 3.57409C12.7525 3.57409 12.6733 3.58994 12.5995 3.62074C12.5257 3.65153 12.4588 3.69666 12.4025 3.7535L8.8225 7.3435C8.5825 7.5735 8.5825 7.9535 8.8225 8.1935ZM3.7525 13.2635L7.3325 16.8435C7.5725 17.0835 7.9525 17.0835 8.1825 16.8435L11.7625 13.2635C11.8206 13.2082 11.8666 13.1414 11.8976 13.0674C11.9286 12.9934 11.9439 12.9137 11.9425 12.8335H11.9525C11.9525 12.6735 11.8925 12.5235 11.7725 12.4035L8.1925 8.8235C8.13731 8.76659 8.07126 8.72134 7.99825 8.69044C7.92525 8.65954 7.84678 8.64361 7.7675 8.64361C7.68822 8.64361 7.60976 8.65954 7.53675 8.69044C7.46374 8.72134 7.39769 8.76659 7.3425 8.8235L3.7525 12.4135C3.5125 12.6435 3.5125 13.0235 3.7525 13.2635ZM10.6855 22.0175L13.0475 24.3805L22.6835 11.3405L22.0285 10.6855L10.6855 22.0175Z" fill="#FD9222" />
</symbol>
<symbol id="bucks" viewBox="0 0 32 32">
 <path d="M16 2.66663C8.66667 2.66663 2.66667 8.66663 2.66667 16C2.66667 23.3333 8.66667 29.3333 16 29.3333C23.3333 29.3333 29.3333 23.3333 29.3333 16C29.3333 8.66663 23.3333 2.66663 16 2.66663ZM16 26.6666C10.1333 26.6666 5.33334 21.8666 5.33334 16C5.33334 10.1333 10.1333 5.33329 16 5.33329C21.8667 5.33329 26.6667 10.1333 26.6667 16C26.6667 21.8666 21.8667 26.6666 16 26.6666Z" fill="#FD9222" />
  <path d="M17.7333 14.6667H14.2667C13.6 14.6667 13.0667 14.1333 13.0667 13.4667C13.0667 12.8 13.6 12.2667 14.2667 12.2667H19.2C20 12.2667 20.5333 11.7333 20.5333 10.9333C20.5333 10.1333 20 9.59998 19.2 9.59998H17.3333V8.39998C17.3333 7.59998 16.8 7.06665 16 7.06665C15.2 7.06665 14.6667 7.59998 14.6667 8.39998V9.59998H14.2667C12.1333 9.59998 10.4 11.3333 10.4 13.4667C10.4 15.6 12.1333 17.3333 14.2667 17.3333H17.6C18.2667 17.3333 18.8 17.8666 18.8 18.5333C18.8 19.2 18.2667 19.7333 17.6 19.7333H12.6667C11.8667 19.7333 11.3333 20.2667 11.3333 21.0667C11.3333 21.8667 11.8667 22.4 12.6667 22.4H14.6667V23.6C14.6667 24.4 15.2 24.9333 16 24.9333C16.8 24.9333 17.3333 24.4 17.3333 23.6V22.4H17.7333C19.8667 22.4 21.6 20.6667 21.6 18.5333C21.6 16.4 19.8667 14.6667 17.7333 14.6667Z" fill="#FD9222" />
</symbol>
<symbol id="spoon" viewBox="0 0 32 32">
 <path d="M15.4515 14.1059C14.669 13.1559 14.275 11.9899 14.275 10.8239C14.275 6.50016 19.4561 2.18176 24.6371 2.18176C27.4975 2.18176 29.8182 4.5029 29.8182 7.36383C29.8182 12.5459 25.5006 17.728 21.1723 17.728C20.0066 17.728 18.8408 17.3339 17.891 16.5512L5.1326 29.3121C4.45798 29.9868 3.3624 29.9868 2.68779 29.3121C2.01317 28.6373 2.01317 27.5415 2.68779 26.8668L15.4515 14.1059Z" fill="#fd9222" />
</symbol>
<symbol id="arrow-small" viewBox="0 0 24 24">
<path d="M0.857147 4.00002H11.1429M11.1429 4.00002L8.57143 1.42859M11.1429 4.00002L8.57143 6.57145" />
</symbol>
<symbol id="circle" viewBox="0 0 24 24">
 <path d="M12 23.1429C18.154 23.1429 23.1429 18.1541 23.1429 12C23.1429 5.84601 18.154 0.857178 12 0.857178C5.84597 0.857178 0.857147 5.84601 0.857147 12C0.857147 18.1541 5.84597 23.1429 12 23.1429Z" />
<symbol id="box" viewBox="0 0 24 24" fill="none">
<path d="M6.85715 12H17.1429M17.1429 12L14.5714 9.42859M17.1429 12L14.5714 14.5714" />
<path d="M12 23.1429C18.154 23.1429 23.1429 18.1541 23.1429 12C23.1429 5.84601 18.154 0.857178 12 0.857178C5.84597 0.857178 0.857147 5.84601 0.857147 12C0.857147 18.1541 5.84597 23.1429 12 23.1429Z" />
</symbol>
<symbol id="play" viewBox="0 0 44 44" fill="none">
<path d="M15 33V12L35 22.5L15 33Z" fill="#F5F4F4" />
  <circle cx="22" cy="22" r="21.5" stroke="white" />
</symbol>
<symbol id="exit" viewBox="0 0 28 28">
 <path d="M21 7L7 21" stroke-width="2" stroke-linecap="round" stroke-linejoin="round" />
  <path d="M7 7L21 21" stroke-width="2" stroke-linecap="round" stroke-linejoin="round" />
</symbol>
<symbol id="name" viewBox="0 0 24 24">
  <path d="M20 21V19C20 17.9391 19.5786 16.9217 18.8284 16.1716C18.0783 15.4214 17.0609 15 16 15H8C6.93913 15 5.92172 15.4214 5.17157 16.1716C4.42143 16.9217 4 17.9391 4 19V21"  stroke-width="2" stroke-linecap="round" stroke-linejoin="round" />
  <path d="M12 11C14.2091 11 16 9.20914 16 7C16 4.79086 14.2091 3 12 3C9.79086 3 8 4.79086 8 7C8 9.20914 9.79086 11 12 11Z"  stroke-width="2" stroke-linecap="round" stroke-linejoin="round" />
</symbol>
<symbol id="email" viewBox="0 0 24 24">
 <path d="M4 4H20C21.1 4 22 4.9 22 6V18C22 19.1 21.1 20 20 20H4C2.9 20 2 19.1 2 18V6C2 4.9 2.9 4 4 4Z"  stroke-width="2" stroke-linecap="round" stroke-linejoin="round" />
  <path d="M22 6L12 13L2 6"  stroke-width="2" stroke-linecap="round" stroke-linejoin="round" />
</symbol>
<symbol id="tel" viewBox="0 0 24 24">
<path d="M21.0001 15.9201V18.9201C21.0012 19.1986 20.9441 19.4743 20.8326 19.7294C20.721 19.9846 20.5574 20.2137 20.3521 20.402C20.1469 20.5902 19.9046 20.7336 19.6408 20.8228C19.377 20.912 19.0974 20.9452 18.8201 20.9201C15.7429 20.5857 12.7871 19.5342 10.1901 17.8501C7.77388 16.3148 5.72539 14.2663 4.19006 11.8501C2.50003 9.2413 1.4483 6.27109 1.12006 3.1801C1.09507 2.90356 1.12793 2.62486 1.21656 2.36172C1.30518 2.09859 1.44763 1.85679 1.63482 1.65172C1.82202 1.44665 2.04986 1.28281 2.30385 1.17062C2.55783 1.05843 2.8324 1.00036 3.11006 1.0001H6.11006C6.59536 0.995321 7.06585 1.16718 7.43382 1.48363C7.80179 1.80008 8.04213 2.23954 8.11005 2.7201C8.23668 3.68016 8.47151 4.62282 8.81006 5.5301C8.9446 5.88802 8.97372 6.27701 8.89396 6.65098C8.81421 7.02494 8.62892 7.36821 8.36005 7.6401L7.09006 8.9101C8.51361 11.4136 10.5865 13.4865 13.0901 14.9101L14.3601 13.6401C14.6319 13.3712 14.9752 13.1859 15.3492 13.1062C15.7231 13.0264 16.1121 13.0556 16.4701 13.1901C17.3773 13.5286 18.32 13.7635 19.2801 13.8901C19.7658 13.9586 20.2095 14.2033 20.5266 14.5776C20.8437 14.9519 21.0122 15.4297 21.0001 15.9201Z"  stroke-width="2" stroke-linecap="round" stroke-linejoin="round" />
</symbol>
<symbol id="flag" viewBox="0 0 20 20">
 <rect x="0.5" y="0.5" width="19" height="19" rx="5.5"  stroke-opacity="0.14" />
  <path d="M8.94874 14.7542C9.38459 14.7542 9.71409 14.5869 9.93724 14.2521L14.7646 6.97702C14.8448 6.85847 14.9041 6.74167 14.9425 6.6266C14.9808 6.50805 15 6.39473 15 6.28664C15 5.98678 14.8954 5.73922 14.6862 5.54397C14.4805 5.34522 14.2259 5.24585 13.9226 5.24585C13.7134 5.24585 13.5356 5.28769 13.3891 5.37137C13.2462 5.45157 13.1102 5.59104 12.9812 5.78978L8.92782 12.1548L6.89854 9.72284C6.67887 9.4683 6.40342 9.34104 6.07218 9.34104C5.76185 9.34104 5.50558 9.44041 5.30335 9.63916C5.10112 9.8379 5 10.0872 5 10.3871C5 10.523 5.02092 10.6521 5.06276 10.7741C5.10809 10.8926 5.19003 11.0164 5.30858 11.1454L8.00209 14.3201C8.24965 14.6095 8.5652 14.7542 8.94874 14.7542Z" fill="white" />
</symbol>
<symbol id="menu-icon" viewBox="0 0 28 28">
<path d="M3.5 14H24.5M3.5 7H24.5M3.5 21H24.5" stroke-width="2" stroke-linecap="round" stroke-linejoin="round" />
</symbol>
</defs>
</svg>